<svg version="1.1" viewBox="51 10 540 290" xmlns="http://www.w3.org/2000/svg" id="toy-dc-unfinished">
  <!-- original viewBox="0 0 600 905" -->

  <!-- Text -->

  <g stroke="black" stroke-width="0.5" id="mid-text">
    <text x="197" y="30">Values</text>
    <text x="310" y="30">XOR</text>
    <text x="402" y="30">Values</text>

    <line x1="180" y1="41" x2="460" y2="41" stroke-width="2" />

    <text x="207" y="65">0x6</text>
    <text x="310" y="65">0x5</text>
    <text x="413" y="65">0x3</text>

    <text x="213" y="137">?</text>
    <text x="310" y="137">0x5</text>
    <text x="419" y="137">?</text>

    <text x="213" y="209">?</text>
    <text x="310" y="209">0xa</text>
    <text x="419" y="209">?</text>

    <text x="207" y="278">0x4</text>
    <text x="310" y="278">0xa</text>
    <text x="413" y="278">0xe</text>
  </g>


  <!-- Toy 1 -->
  <g stroke="black" stroke-width="2.5">
    <!-- round 1 key input -->
    <g class="x">
      <line x1="90" y1="45" x2="90" y2="80" class="b0" />
      <line x1="110" y1="45" x2="110" y2="80" class="b1 isOne" />
      <line x1="130" y1="45" x2="130" y2="80" class="b2 isOne" />
      <line x1="150" y1="45" x2="150" y2="80" class="b3" />
    </g>

    <!-- round 1 key -->
    <rect x="80" y="80" width="80" height="35" fill="transparent" />

    <!-- round 1 sbox input -->
    <g class="u">
      <line x1="90" y1="115" x2="90" y2="150" class="b0" />
      <line x1="110" y1="115" x2="110" y2="150" class="b1" />
      <line x1="130" y1="115" x2="130" y2="150" class="b2" />
      <line x1="150" y1="115" x2="150" y2="150" class="b3" />
    </g>

    <!-- round 1 sbox -->
    <rect x="80" y="150" width="80" height="35" fill="transparent" />

    <!-- round 2 key input -->
    <g class="v">
      <line x1="90" y1="185" x2="90" y2="220" class="b0" />
      <line x1="110" y1="185" x2="110" y2="220" class="b1" />
      <line x1="130" y1="185" x2="130" y2="220" class="b2" />
      <line x1="150" y1="185" x2="150" y2="220" class="b3" />
    </g>

    <!-- round 2 key -->
    <rect x="80" y="220" width="80" height="35" fill="transparent" />

    <!-- round 2 key output -->
    <g class="y">
      <line x1="90" y1="255" x2="90" y2="290" class="b0" />
      <line x1="110" y1="255" x2="110" y2="290" class="b1 isOne" />
      <line x1="130" y1="255" x2="130" y2="290" class="b2" />
      <line x1="150" y1="255" x2="150" y2="290" class="b3" />
    </g>
  </g>
  <g>
    <!-- K1 -->
    <text x="113" y="103">K</text>
    <text class="sub" x="125" y="107">1</text>
    <!-- K2 -->
    <text x="113" y="243">K</text>
    <text class="sub" x="125" y="247">2</text>

    <!-- x -->
    <text x="50" y="70">x</text>

    <!-- u1 -->
    <text x="50" y="140">u</text>
    <!-- v1 -->
    <text x="50" y="205">v</text>

    <!-- y -->
    <text x="50" y="280">y</text>

    <!-- S -->
    <text x="114" y="175">S</text>
  </g>


  <!-- Toy 2 -->
  <g stroke="black" stroke-width="2.5">
    <!-- round 1 key input -->
    <g class="x">
      <line x1="490" y1="45" x2="490" y2="80" class="b0" />
      <line x1="510" y1="45" x2="510" y2="80" class="b1" />
      <line x1="530" y1="45" x2="530" y2="80" class="b2 isOne" />
      <line x1="550" y1="45" x2="550" y2="80" class="b3 isOne" />
    </g>

    <!-- round 1 key -->
    <rect x="480" y="80" width="80" height="35" fill="transparent" />

    <!-- round 1 sbox input -->
    <g class="u">
      <line x1="490" y1="115" x2="490" y2="150" class="b0" />
      <line x1="510" y1="115" x2="510" y2="150" class="b1" />
      <line x1="530" y1="115" x2="530" y2="150" class="b2" />
      <line x1="550" y1="115" x2="550" y2="150" class="b3" />
    </g>

    <!-- round 1 sbox -->
    <rect x="480" y="150" width="80" height="35" fill="transparent" />

    <!-- round 2 key input -->
    <g class="v">
      <line x1="490" y1="185" x2="490" y2="220" class="b0" />
      <line x1="510" y1="185" x2="510" y2="220" class="b1" />
      <line x1="530" y1="185" x2="530" y2="220" class="b2" />
      <line x1="550" y1="185" x2="550" y2="220" class="b3" />
    </g>

    <!-- round 2 key -->
    <rect x="480" y="220" width="80" height="35" fill="transparent" />

    <!-- round 2 key output -->
    <g class="y">
      <line x1="490" y1="255" x2="490" y2="290" class="b0 isOne" />
      <line x1="510" y1="255" x2="510" y2="290" class="b1 isOne" />
      <line x1="530" y1="255" x2="530" y2="290" class="b2 isOne" />
      <line x1="550" y1="255" x2="550" y2="290" class="b3" />
    </g>
  </g>
  <g>
    <!-- K1 -->
    <text x="513" y="103">K</text>
    <text class="sub" x="525" y="107">1</text>
    <!-- K2 -->
    <text x="513" y="243">K</text>
    <text class="sub" x="525" y="247">2</text>

    <!-- x -->
    <text x="575" y="70">x</text>

    <!-- u1 -->
    <text x="575" y="140">u</text>
    <!-- v1 -->
    <text x="575" y="205">v</text>

    <!-- y -->
    <text x="575" y="280">y</text>

    <!-- S -->
    <text x="514" y="175">S</text>
  </g>
</svg>
